<?xml version="1.0" encoding="UTF-8" standalone="no"?>
<svg
   xmlns:dc="http://purl.org/dc/elements/1.1/"
   xmlns:cc="http://creativecommons.org/ns#"
   xmlns:rdf="http://www.w3.org/1999/02/22-rdf-syntax-ns#"
   xmlns:svg="http://www.w3.org/2000/svg"
   xmlns="http://www.w3.org/2000/svg"
   xmlns:sodipodi="http://sodipodi.sourceforge.net/DTD/sodipodi-0.dtd"
   xmlns:inkscape="http://www.inkscape.org/namespaces/inkscape"
   width="12pt"
   height="12pt"
   viewBox="0 0 12 12"
   version="1.1"
   id="svg20"
   sodipodi:docname="IPA upload.svg"
   inkscape:version="0.92.5 (2060ec1f9f, 2020-04-08)">
  <metadata
     id="metadata26">
    <rdf:RDF>
      <cc:Work
         rdf:about="">
        <dc:format>image/svg+xml</dc:format>
        <dc:type
           rdf:resource="http://purl.org/dc/dcmitype/StillImage" />
        <dc:title></dc:title>
      </cc:Work>
    </rdf:RDF>
  </metadata>
  <defs
     id="defs24" />
  <sodipodi:namedview
     pagecolor="#ffffff"
     bordercolor="#666666"
     borderopacity="1"
     objecttolerance="10"
     gridtolerance="10"
     guidetolerance="10"
     inkscape:pageopacity="0"
     inkscape:pageshadow="2"
     inkscape:window-width="1920"
     inkscape:window-height="1009"
     id="namedview22"
     showgrid="false"
     inkscape:zoom="20.85965"
     inkscape:cx="6.0677967"
     inkscape:cy="18.169492"
     inkscape:window-x="0"
     inkscape:window-y="0"
     inkscape:window-maximized="1"
     inkscape:current-layer="svg20"
     inkscape:snap-object-midpoints="true"
     inkscape:snap-center="true"
     inkscape:snap-smooth-nodes="true" />
  <g
     aria-label="ə"
     style="font-style:normal;font-variant:normal;font-weight:normal;font-stretch:normal;font-size:7.99999952px;line-height:0;font-family:Andika;-inkscape-font-specification:Andika;font-variant-ligatures:normal;font-variant-caps:normal;font-variant-numeric:normal;font-feature-settings:normal;text-align:start;writing-mode:lr-tb;text-anchor:start;opacity:1;vector-effect:none;fill:#000006;fill-opacity:1;stroke:none;stroke-width:0.15000001;stroke-linecap:square;stroke-linejoin:bevel;stroke-miterlimit:4;stroke-dasharray:none;stroke-dashoffset:0;stroke-opacity:1;paint-order:markers stroke fill"
     id="text818-3">
    <path
       style="font-style:normal;font-variant:normal;font-weight:normal;font-stretch:normal;font-size:11.5px;line-height:0;font-family:'Gentium Book Plus';-inkscape-font-specification:'Gentium Book Plus';stroke-width:0.2"
       d="M 8.0742188 4.7539062 C 7.7398004 4.7539063 7.4188367 4.7960074 7.109375 4.8808594 C 6.7999131 4.9657118 6.4769965 5.123915 6.1425781 5.3535156 C 5.8131511 5.578125 5.4472657 5.9047309 5.0429688 6.3339844 C 5.0729166 6.3739149 5.1178385 6.439453 5.1777344 6.5292969 C 5.2426216 6.6141493 5.3062067 6.671224 5.3710938 6.7011719 C 5.8851996 6.3368055 6.3036025 6.1037325 6.6230469 6.0039062 C 6.9424913 5.8990889 7.2391493 5.8476562 7.5136719 5.8476562 C 7.9029948 5.8476562 8.2595486 5.9524739 8.5839844 6.1621094 C 8.9084202 6.3717447 9.1686198 6.6768663 9.3632812 7.0761719 C 9.5422769 7.4296888 9.6279647 7.8653357 9.6464844 8.3632812 L 6.3007812 8.3632812 C 6.1260851 8.4331598 5.9407552 8.5136719 5.7460938 8.6035156 C 5.5564236 8.6933594 5.3888889 8.7747396 5.2441406 8.8496094 C 5.1592882 8.9644098 5.092882 9.1019965 5.0429688 9.2617188 C 4.9980474 9.421441 4.9746094 9.5983073 4.9746094 9.7929688 C 4.9746094 10.242187 5.094401 10.646484 5.3339844 11.005859 C 5.5735677 11.365234 5.8993056 11.64974 6.3085938 11.859375 C 6.7228732 12.064019 7.1907551 12.166016 7.7148438 12.166016 C 8.6182726 12.166016 9.3576389 11.854384 9.9316406 11.230469 C 10.27105 10.861111 10.53776 10.424045 10.732422 9.9199219 C 10.927083 9.4108073 11.025391 8.8624131 11.025391 8.2734375 C 11.025391 7.529731 10.884983 6.8951824 10.605469 6.3710938 C 10.325955 5.8470052 9.9609376 5.4483507 9.5117188 5.1738281 C 9.0624999 4.8943143 8.5833333 4.7539062 8.0742188 4.7539062 z M 6.8769531 9.0976562 L 9.6386719 9.0976562 C 9.5893353 9.7471859 9.4549297 10.263918 9.2285156 10.638672 C 8.9390191 11.112847 8.4906685 11.349609 7.8867188 11.349609 C 7.5023871 11.349609 7.1542969 11.19987 6.8398438 10.900391 C 6.530382 10.600912 6.375 10.217231 6.375 9.7480469 C 6.375 9.5483942 6.4199216 9.3921438 6.5097656 9.2773438 C 6.5996094 9.1575523 6.7222222 9.0976562 6.8769531 9.0976562 z "
       transform="scale(0.75)"
       id="path921" />
  </g>
</svg>
